#!OML:ASF G:\JayActor3\Patient Classification 1\Patient 1\Session 2\male.ASF
:FULLY-SPECIFIED
:DEGREES
3932
root 14.532 16.8277 -6.15062 1617.23 -259.214 533.674
lowerback 1.60966 -1.69084 -4.14692
upperback 8.97468 -1.87012 0.109142
thorax 8.69519 -1.13048 2.33359
lowerneck 0.882499 -13.428 -15.0449
upperneck 8.5361 -19.7089 20.3861
head 6.01496 -9.52256 7.4022
rclavicle -2.46493e-014 -2.78299e-015
rhumerus -24.4935 20.6966 -91.6303
rradius 39.931
rwrist -7.75361
rhand -19.7585 5.07784
rfingers 7.12502
rthumb 6.57294 -24.8002
lclavicle -2.46493e-014 -2.78299e-015
lhumerus -23.0243 -10.4244 83.8248
lradius 40.196
lwrist 21.0804
lhand -27.4864 16.9374
lfingers 7.12502
lthumb -0.889822 46.9152
rfemur -27.8761 6.92489 20.9662
rtibia 65.6193
rfoot -17.8007 -9.24533
rtoes 13.1416
lfemur -12.5979 7.91095 -23.6744
ltibia 26.7627
lfoot -14.4264 2.07667
ltoes -1.95674
3933
root 14.6111 16.8167 -6.15663 1617.15 -259.258 533.607
lowerback 1.60384 -1.73199 -4.21751
upperback 8.96658 -1.92478 0.127942
thorax 8.6985 -1.16383 2.38923
lowerneck 0.779735 -13.3979 -15.0475
upperneck 8.6301 -19.6646 20.3334
head 6.04752 -9.4934 7.38405
rclavicle -3.26007e-014 7.95139e-016
rhumerus -24.5546 20.7047 -91.6173
rradius 39.9439
rwrist -7.73275
rhand -19.7922 5.07442
rfingers 7.12502
rthumb 6.54045 -24.8046
lclavicle -3.26007e-014 7.95139e-016
lhumerus -22.6977 -10.95 83.9659
lradius 41.0178
lwrist 21.3914
lhand -27.5505 16.861
lfingers 7.12502
lthumb -0.951763 46.8387
rfemur -28.4634 7.01836 21.0748
rtibia 64.7125
rfoot -18.5105 -9.40806
rtoes 12.8645
lfemur -12.3094 7.91134 -23.7028
ltibia 26.8387
lfoot -14.7662 1.99894
ltoes -2.00391
3934
root 14.6907 16.8051 -6.16197 1617.09 -259.298 533.569
lowerback 1.60037 -1.76785 -4.29465
upperback 8.96043 -1.97196 0.145718
thorax 8.70252 -1.19392 2.44794
lowerneck 0.667452 -13.3624 -15.046
upperneck 8.7339 -19.6125 20.278
head 6.08262 -9.45954 7.36492
rclavicle -2.18663e-015 -4.77083e-015
rhumerus -24.6082 20.7136 -91.6039
rradius 39.9513
rwrist -7.72168
rhand -19.7911 5.05953
rfingers 7.12502
rthumb 6.54153 -24.8194
lclavicle -2.18663e-015 -4.77083e-015
lhumerus -22.4112 -11.4919 84.1038
lradius 41.9113
lwrist 21.7065
lhand -27.6033 16.7846
lfingers 7.12502
lthumb -1.0028 46.762
rfemur -29.0282 7.12888 21.1732
rtibia 63.7231
rfoot -19.1361 -9.48128
rtoes 12.6057
lfemur -12.006 7.91962 -23.7348
ltibia 26.8991
lfoot -15.0956 1.92869
ltoes -2.0834
3935
root 14.7708 16.7935 -6.1668 1617.07 -259.334 533.569
lowerback 1.60165 -1.79863 -4.37702
upperback 8.9541 -2.01217 0.161796
thorax 8.70336 -1.2208 2.50836
lowerneck 0.544177 -13.3204 -15.0434
upperneck 8.84786 -19.5518 20.2222
head 6.12103 -9.42043 7.34604
rclavicle -3.27995e-014 2.94201e-014
rhumerus -24.6539 20.7168 -91.5895
rradius 39.953
rwrist -7.72315
rhand -19.7572 5.04629
rfingers 7.12502
rthumb 6.57418 -24.8317
lclavicle -3.27995e-014 2.94201e-014
lhumerus -22.1597 -12.0421 84.2362
lradius 42.8665
lwrist 22.0081
lhand -27.63 16.7639
lfingers 7.12502
lthumb -1.02854 46.7412
rfemur -29.5728 7.25657 21.2582
rtibia 62.66
rfoot -19.667 -9.46581
rtoes 12.331
lfemur -11.6829 7.93627 -23.7725
ltibia 26.9292
lfoot -15.4084 1.86694
ltoes -2.18114
3936
root 14.8517 16.7829 -6.17117 1617.08 -259.363 533.6
lowerback 1.60715 -1.8231 -4.45923
upperback 8.94728 -2.04378 0.173237
thorax 8.70041 -1.24313 2.56447
lowerneck 0.426319 -13.2721 -15.0446
upperneck 8.9665 -19.4843 20.1771
head 6.16034 -9.3779 7.3328
rclavicle -1.53064e-014 5.1684e-015
rhumerus -24.6966 20.6999 -91.5794
rradius 39.9493
rwrist -7.73919
rhand -19.7046 5.0363
rfingers 7.12502
rthumb 6.625 -24.8401
lclavicle -1.53064e-014 5.1684e-015
lhumerus -21.9411 -12.6067 84.3606
lradius 43.868
lwrist 22.3033
lhand -27.6358 16.7547
lfingers 7.12502
lthumb -1.0342 46.7319
rfemur -30.0918 7.40541 21.3298
rtibia 61.5281
rfoot -20.0879 -9.38807
rtoes 12.0286
lfemur -11.3277 7.96492 -23.8139
ltibia 26.9148
lfoot -15.7037 1.8148
ltoes -2.31089
3937
root 14.9335 16.7736 -6.17518 1617.1 -259.384 533.652
lowerback 1.61579 -1.83942 -4.53527
upperback 8.93986 -2.06439 0.178778
thorax 8.69348 -1.25918 2.61173
lowerneck 0.313597 -13.2208 -15.0433
upperneck 9.08783 -19.4141 20.1395
head 6.19978 -9.33396 7.32254
rclavicle 2.38542e-015 -1.59028e-015
rhumerus -24.7373 20.658 -91.5736
rradius 39.9443
rwrist -7.77847
rhand -19.6548 5.03507
rfingers 7.12502
rthumb 6.67303 -24.8398
lclavicle 2.38542e-015 -1.59028e-015
lhumerus -21.7467 -13.1796 84.4753
lradius 44.903
lwrist 22.5788
lhand -27.626 16.7614
lfingers 7.12502
lthumb -1.02473 46.7387
rfemur -30.5847 7.57337 21.3882
rtibia 60.3343
rfoot -20.4077 -9.24735
rtoes 11.7547
lfemur -10.9363 8.00273 -23.858
ltibia 26.8446
lfoot -15.9773 1.77835
ltoes -2.47791
3938
root 15.0161 16.7658 -6.17888 1617.14 -259.401 533.725
lowerback 1.62652 -1.84773 -4.60211
upperback 8.93149 -2.07416 0.176576
thorax 8.68249 -1.26872 2.64644
lowerneck 0.206609 -13.1691 -15.0316
upperneck 9.21577 -19.3449 20.1023
head 6.23946 -9.29013 7.31126
rclavicle -3.73715e-014 7.55382e-015
rhumerus -24.7821 20.584 -91.5754
rradius 39.9428
rwrist -7.83704
rhand -19.6179 5.02404
rfingers 7.12502
rthumb 6.70872 -24.8497
lclavicle -3.73715e-014 7.55382e-015
lhumerus -21.5778 -13.7676 84.5825
lradius 45.9614
lwrist 22.8465
lhand -27.6141 16.7463
lfingers 7.12502
lthumb -1.01319 46.7237
rfemur -31.0468 7.74101 21.4359
rtibia 59.0864
rfoot -20.6053 -9.07894
rtoes 11.446
lfemur -10.505 8.04343 -23.9046
ltibia 26.7137
lfoot -16.2255 1.75731
ltoes -2.66624
3939
root 15.0997 16.7595 -6.18236 1617.19 -259.414 533.805
lowerback 1.63964 -1.84951 -4.6578
upperback 8.92456 -2.07506 0.167931
thorax 8.67 -1.27266 2.66876
lowerneck 0.09635 -13.1183 -15.0079
upperneck 9.35178 -19.2777 20.0644
head 6.28138 -9.24635 7.29759
rclavicle 1.37161e-014 1.55052e-014
rhumerus -24.8272 20.4856 -91.5821
rradius 39.9473
rwrist -7.90971
rhand -19.611 5.00726
rfingers 7.12502
rthumb 6.71531 -24.8663
lclavicle 1.37161e-014 1.55052e-014
lhumerus -21.4309 -14.3632 84.6856
lradius 47.0359
lwrist 23.1199
lhand -27.6181 16.6783
lfingers 7.12502
lthumb -1.01704 46.6556
rfemur -31.4774 7.89551 21.4762
rtibia 57.7939
rfoot -20.6999 -8.87232
rtoes 11.2441
lfemur -10.0376 8.08025 -23.9524
ltibia 26.5277
lfoot -16.4521 1.74923
ltoes -2.8092
3940
root 15.1841 16.7544 -6.18562 1617.23 -259.428 533.876
lowerback 1.6497 -1.84461 -4.69897
upperback 8.92147 -2.06662 0.153737
thorax 8.66164 -1.27069 2.67757
lowerneck -0.0172728 -13.0699 -14.9648
upperneck 9.49434 -19.2134 20.0185
head 6.32369 -9.20315 7.2778
rclavicle -1.15295e-014 6.75868e-015
rhumerus -24.8704 20.3654 -91.5925
rradius 39.9589
rwrist -7.98775
rhand -19.6442 4.97597
rfingers 7.12502
rthumb 6.68326 -24.8986
lclavicle -1.15295e-014 6.75868e-015
lhumerus -21.2946 -14.9561 84.7815
lradius 48.116
lwrist 23.3516
lhand -27.5999 16.6371
lfingers 7.12502
lthumb -0.999524 46.6145
rfemur -31.8788 8.01944 21.5157
rtibia 56.4685
rfoot -20.696 -8.64401
rtoes 11.1016
lfemur -9.54197 8.11583 -23.9976
ltibia 26.2953
lfoot -16.6522 1.74565
ltoes -2.90283
3941
root 15.269 16.7497 -6.18861 1617.28 -259.451 533.958
lowerback 1.65799 -1.83665 -4.73382
upperback 8.92218 -2.05359 0.135661
thorax 8.65761 -1.26583 2.67894
lowerneck -0.140735 -13.021 -14.9007
upperneck 9.64643 -19.1474 19.9591
head 6.36685 -9.1579 7.25009
rclavicle 1.59028e-014 -6.36111e-015
rhumerus -24.909 20.235 -91.6042
rradius 39.9753
rwrist -8.05432
rhand -19.7169 4.93905
rfingers 7.12502
rthumb 6.61315 -24.9377
lclavicle 1.59028e-014 -6.36111e-015
lhumerus -21.1675 -15.5345 84.8716
lradius 49.1953
lwrist 23.5118
lhand -27.5567 16.6353
lfingers 7.12502
lthumb -0.957775 46.6129
rfemur -32.252 8.09861 21.5535
rtibia 55.1222
rfoot -20.5996 -8.41268
rtoes 10.9607
lfemur -9.02711 8.14563 -24.045
ltibia 26.0261
lfoot -16.8292 1.74102
ltoes -2.93501
3942
root 15.3544 16.7457 -6.19128 1617.34 -259.484 534.042
lowerback 1.66253 -1.82697 -4.76396
upperback 8.9277 -2.03777 0.117021
thorax 8.66058 -1.25932 2.67708
lowerneck -0.279614 -12.9699 -14.8161
upperneck 9.81174 -19.0766 19.8802
head 6.41183 -9.10897 7.21258
rclavicle 3.26007e-014 -2.94201e-014
rhumerus -24.9383 20.1067 -91.6143
rradius 39.9937
rwrist -8.10278
rhand -19.8251 4.90315
rfingers 7.12502
rthumb 6.50867 -24.9768
lclavicle 3.26007e-014 -2.94201e-014
lhumerus -21.0466 -16.1028 84.9599
lradius 50.2592
lwrist 23.6073
lhand -27.4889 16.63
lfingers 7.12502
lthumb -0.892281 46.6079
rfemur -32.6042 8.13076 21.5937
rtibia 53.7661
rfoot -20.4529 -8.16217
rtoes 11.0124
lfemur -8.49748 8.17241 -24.0917
ltibia 25.7236
lfoot -16.9705 1.73475
ltoes -2.97406
3943
root 15.44 16.7425 -6.19354 1617.41 -259.535 534.142
lowerback 1.66262 -1.81752 -4.79492
upperback 8.93679 -2.02177 0.0995385
thorax 8.67022 -1.25294 2.67674
lowerneck -0.435012 -12.9149 -14.7088
upperneck 9.99342 -18.9977 19.7741
head 6.45824 -9.05488 7.16283
rclavicle 3.22031e-014 -1.35174e-014
rhumerus -24.9565 19.9864 -91.6205
rradius 40.0119
rwrist -8.12838
rhand -19.955 4.88021
rfingers 7.12502
rthumb 6.38324 -25.0036
lclavicle 3.22031e-014 -1.35174e-014
lhumerus -20.9293 -16.666 85.0505
lradius 51.3038
lwrist 23.6525
lhand -27.4108 16.6371
lfingers 7.12502
lthumb -0.816845 46.6153
rfemur -32.9392 8.11594 21.634
rtibia 52.409
rfoot -20.2791 -7.91057
rtoes 11.1667
lfemur -7.95673 8.19537 -24.1404
ltibia 25.3874
lfoot -17.0838 1.71614
ltoes -2.97438
3944
root 15.5259 16.7406 -6.19544 1617.52 -259.602 534.273
lowerback 1.65756 -1.80924 -4.82849
upperback 8.94921 -2.00665 0.0818507
thorax 8.68683 -1.2473 2.67739
lowerneck -0.606344 -12.8516 -14.5784
upperneck 10.1938 -18.9053 19.6412
head 6.5058 -8.9929 7.10178
rclavicle -2.74323e-014 1.78906e-014
rhumerus -24.9626 19.8706 -91.6233
rradius 40.0294
rwrist -8.1261
rhand -20.0829 4.86405
rfingers 7.12502
rthumb 6.2598 -25.0235
lclavicle -2.74323e-014 1.78906e-014
lhumerus -20.8184 -17.2298 85.1443
lradius 52.3219
lwrist 23.6744
lhand -27.3311 16.6414
lfingers 7.12502
lthumb -0.739842 46.6198
rfemur -33.2593 8.06701 21.6707
rtibia 51.059
rfoot -20.0885 -7.69714
rtoes 11.2843
lfemur -7.40193 8.21424 -24.1935
ltibia 25.013
lfoot -17.1649 1.6916
ltoes -2.97095
3945
root 15.612 16.7403 -6.19685 1617.65 -259.686 534.426
lowerback 1.65018 -1.80184 -4.86323
upperback 8.96295 -1.99247 0.0650981
thorax 8.70648 -1.24229 2.67953
lowerneck -0.7905 -12.777 -14.4277
upperneck 10.4133 -18.7956 19.4828
head 6.55396 -8.92146 7.03107
rclavicle -7.15625e-015 1.51076e-014
rhumerus -24.9565 19.7604 -91.6217
rradius 40.0462
rwrist -8.10962
rhand -20.1918 4.8634
rfingers 7.12502
rthumb 6.15468 -25.0272
lclavicle -7.15625e-015 1.51076e-014
lhumerus -20.7152 -17.7973 85.2456
lradius 53.3076
lwrist 23.704
lhand -27.2643 16.6298
lfingers 7.12502
lthumb -0.675313 46.6085
rfemur -33.5683 7.9962 21.7035
rtibia 49.7233
rfoot -19.8917 -7.52182
rtoes 11.3447
lfemur -6.83298 8.22709 -24.2485
ltibia 24.6002
lfoot -17.2127 1.66589
ltoes -2.99234
3946
root 15.6982 16.7413 -6.19776 1617.82 -259.784 534.611
lowerback 1.6437 -1.79451 -4.8989
upperback 8.97459 -1.97837 0.0471166
thorax 8.72327 -1.23725 2.68094
lowerneck -0.985083 -12.6891 -14.2521
upperneck 10.6559 -18.6659 19.2942
head 6.60235 -8.83935 6.94899
rclavicle -3.57812e-015 -2.5842e-014
rhumerus -24.9469 19.65 -91.6201
rradius 40.0675
rwrist -8.09418
rhand -20.2661 4.85979
rfingers 7.12502
rthumb 6.0829 -25.0329
lclavicle -3.57812e-015 -2.5842e-014
lhumerus -20.627 -18.3703 85.3556
lradius 54.2579
lwrist 23.7651
lhand -27.2151 16.5937
lfingers 7.12502
lthumb -0.62787 46.5726
rfemur -33.8685 7.90286 21.7321
rtibia 48.4099
rfoot -19.6708 -7.40289
rtoes 11.1288
lfemur -6.2519 8.2301 -24.3074
ltibia 24.153
lfoot -17.2249 1.64498
ltoes -3.05384
